<?xml version="1.0" encoding="UTF-8" standalone="no"?>
<svg width="40px" height="40px" viewBox="0 0 40 40" version="1.1" xmlns="http://www.w3.org/2000/svg" xmlns:xlink="http://www.w3.org/1999/xlink">
    <!-- Generator: Sketch 3.8.3 (29802) - http://www.bohemiancoding.com/sketch -->
    <title>iMessage</title>
    <desc>Created with Sketch.</desc>
    <defs></defs>
    <g id="signedOut" stroke="none" stroke-width="1" fill="none" fill-rule="evenodd">
        <g id="itemViewV2-Copy-3" transform="translate(-300.000000, -640.000000)">
            <g id="iMessage" transform="translate(300.000000, 640.000000)">
                <rect fill="#4CD964" x="0" y="0" width="40" height="40" rx="20"></rect>
                <g id="ios-chatbubble" transform="translate(10.000000, 11.600000)" fill="#FFFFFF">
                    <path d="M10,0 C4.47395833,0 0,3.59895833 0,8.03645833 C0,9.63541667 0.583333333,11.125 1.58333333,12.375 C1.63020833,12.421875 1.734375,12.5729167 1.77083333,12.6302083 C1.77083333,12.6302083 1.71875,12.546875 1.71354167,12.53125 L1.71354167,12.53125 L1.71354167,12.53125 L1.71354167,12.53125 C1.83333333,12.703125 1.90104167,12.9010417 1.90104167,13.1145833 C1.90104167,13.1875 0.96875,16.1354167 0.96875,16.1354167 L0.96875,16.1354167 C0.901041667,16.3645833 1.078125,16.5989583 1.36458333,16.65625 C1.40625,16.6666667 1.44791667,16.6666667 1.48958333,16.6666667 C1.55729167,16.6666667 1.61979167,16.65625 1.68229167,16.640625 L1.765625,16.609375 L4.40104167,15.4635417 C4.44791667,15.4427083 4.86979167,15.28125 4.921875,15.2604167 L4.953125,15.25 C4.953125,15.25 4.94791667,15.25 4.921875,15.2604167 C5.09895833,15.1979167 5.296875,15.1666667 5.50520833,15.1666667 C5.69270833,15.1666667 5.875,15.1927083 6.04166667,15.2447917 C6.046875,15.2447917 6.05208333,15.2447917 6.05208333,15.25 C6.078125,15.2604167 6.10416667,15.265625 6.13020833,15.2760417 C7.33333333,15.6875 8.65104167,15.8125 10.0416667,15.8125 C15.5625,15.8125 19.9895833,12.4739583 19.9895833,8.03645833 C20,3.59895833 15.5208333,0 10,0 L10,0 L10,0 Z" id="Shape"></path>
                </g>
            </g>
        </g>
    </g>
</svg>