<?xml version="1.0" encoding="UTF-8"?>
<svg width="40px" height="40px" viewBox="0 0 110 110" version="1.1" xmlns="http://www.w3.org/2000/svg" xmlns:xlink="http://www.w3.org/1999/xlink">
    <!-- Generator: Sketch 50.2 (55047) - http://www.bohemiancoding.com/sketch -->
    <title>Fill 1</title>
    <desc>Created with Sketch.</desc>
    <defs></defs>
    <g id="Page-1" stroke="none" stroke-width="1" fill="none" fill-rule="evenodd">
        <rect id="iMessage" fill="#AD2530" x="0" y="0" width="110" height="110" rx="55"></rect>
        <g id="Artboard" transform="translate(-806.000000, -1990.000000)" fill="#FFFFFF">
            <g id="Group" transform="translate(800.000000, 1982.000000)">
                <path d="M55.8362976,74.0255295 C54.2075874,82.5649637 52.2182627,90.7521051 46.3255815,95.0283608 C44.506657,82.1215266 48.9965076,72.4281255 51.0809395,62.1371344 C47.5263094,56.1529126 51.5085255,44.1103647 59.0065362,47.0785007 C68.2319308,50.7278417 51.0175348,69.3252544 62.573451,71.6478505 C74.6397758,74.0726868 79.5655341,50.7123868 72.0841671,43.1157023 C61.2732569,32.1462802 40.6151891,42.8656497 43.1553428,58.5706159 C43.7731431,62.4105675 47.7403005,63.575234 44.7404622,68.8738916 C37.8210199,67.3398924 35.756402,61.8831191 36.0223058,54.6078176 C36.4498917,42.6992122 46.7218613,34.3618807 57.0251371,33.2087064 C70.0548181,31.7500003 82.2836175,37.9914078 83.9725622,50.2487394 C85.8739128,64.0828684 78.0909769,79.0658127 64.1585704,77.9883279 C60.3816273,77.6950808 58.7965079,75.8242437 55.8362976,74.0255295" id="Fill-1"></path>
            </g>
        </g>
    </g>
</svg>