<?xml version="1.0" encoding="UTF-8"?>
<svg width="40px" height="40px" viewBox="0 0 90 90" version="1.1" xmlns="http://www.w3.org/2000/svg" xmlns:xlink="http://www.w3.org/1999/xlink">
    <!-- Generator: Sketch 50.2 (55047) - http://www.bohemiancoding.com/sketch -->
    <title>Fill-3</title>
    <desc>Created with Sketch.</desc>
    <defs></defs>
    <g id="Page-1" stroke="none" stroke-width="1" fill="none" fill-rule="evenodd">
        <rect id="iMessage" fill="#FF4500" x="0" y="0" width="90" height="90" rx="45"></rect>
        <g id="logo01" fill="#FFFFFF" fill-rule="nonzero" transform='translate(22, 23)'>
            <path d="M32.2,29.5 C30.1,29.5 28.5,27.8 28.5,25.8 C28.5,23.7 30.2,22 32.2,22 C34.2,22 35.9,23.7 35.9,25.8 C36,27.8 34.3,29.5 32.2,29.5 M32.9,35.7 C30.3,38.3 25.4,38.5 24,38.5 C22.6,38.5 17.7,38.3 15.1,35.7 C14.7,35.3 14.7,34.7 15.1,34.3 C15.5,33.9 16.1,33.9 16.5,34.3 C18.1,35.9 21.6,36.5 24,36.5 C26.5,36.5 29.9,35.9 31.5,34.3 C31.9,33.9 32.5,33.9 32.9,34.3 C33.3,34.7 33.3,35.3 32.9,35.7 M12,25.8 C12,23.7 13.7,22 15.8,22 C17.9,22 19.5,23.7 19.5,25.8 C19.5,27.9 17.8,29.5 15.8,29.5 C13.7,29.5 12,27.8 12,25.8 M48,22 C48,19.1 45.6,16.7 42.7,16.7 C41.3,16.7 40,17.3 39.1,18.2 C35.5,15.6 30.6,13.9 25.1,13.7 L27.5,2.4 L35.3,4.1 C35.4,6.1 37,7.7 39,7.7 C41.1,7.7 42.7,6 42.7,4 C42.7,1.9 41,0.3 39,0.3 C37.5,0.3 36.3,1.2 35.7,2.4 L27,0.5 C26.8,0.4 26.5,0.5 26.3,0.6 C26.1,0.7 25.9,0.9 25.9,1.2 L23.3,13.5 C23.3,13.6 23.3,13.6 23.3,13.7 C17.7,13.8 12.7,15.5 9,18.1 C8.1,17.2 6.8,16.6 5.4,16.6 C2.5,16.6 0.1,19 0.1,21.9 C0.1,24 1.4,25.9 3.2,26.7 C3.1,27.2 3.1,27.8 3.1,28.3 C3.1,36.4 12.5,42.9 24.1,42.9 C35.7,42.9 45.1,36.4 45.1,28.3 C45.1,27.8 45.1,27.2 45,26.7 C46.7,26 48,24.1 48,22" id="Fill-3"></path>
        </g>
    </g>
</svg>