<?xml version="1.0" encoding="UTF-8"?>
<svg width="40px" height="40px" viewBox="0 0 110 110" version="1.1" xmlns="http://www.w3.org/2000/svg" xmlns:xlink="http://www.w3.org/1999/xlink">
    <!-- Generator: Sketch 50.2 (55047) - http://www.bohemiancoding.com/sketch -->
    <title>Shape</title>
    <desc>Created with Sketch.</desc>
    <defs></defs>
    <g id="Page-1" stroke="none" stroke-width="1" fill="none" fill-rule="evenodd">
        <rect id="iMessage" fill="#303D4D" x="0" y="0" width="110" height="110" rx="55"></rect>
        <g id="Artboard" transform="translate(-91.000000, -2137.000000)" fill="#FFFFFF" fill-rule="nonzero">
            <g id="Group-2" transform="translate(85.000000, 2130.000000)">
                <g id="tumblr-seeklogo.com" transform="translate(42.000000, 30.000000)">
                    <path d="M31.612719,47.9229878 C30.4969053,48.455098 28.3615204,48.9180639 26.7675007,48.9601517 C21.9643885,49.0894214 21.0320373,45.5871141 20.9899311,43.0438077 L20.9899311,24.3658375 L33.0443292,24.3658375 L33.0443292,15.2838886 L21.0350449,15.2838886 L21.0350449,0 L12.2408683,0 C12.0965042,0 11.8438671,0.126263439 11.8107837,0.447934582 C11.2964868,5.12569437 9.10395781,13.3358242 0,16.6156674 L0,24.3658375 L6.07532037,24.3658375 L6.07532037,43.9727459 C6.07532037,50.6827457 11.0288118,60.2186416 24.1057885,59.9961775 C28.5149071,59.9210208 33.4142621,58.0721632 34.5,56.4818451 L31.612719,47.9229878" id="Shape"></path>
                </g>
            </g>
        </g>
    </g>
</svg>